<svg width="108" height="108" viewBox="0 0 108 108" fill="none" xmlns="http://www.w3.org/2000/svg">
<circle cx="54" cy="54" r="54" fill="url(#paint0_linear_185_219)"/>
<path d="M69.499 48.5095C69.499 48.5095 68.5 29.9998 53 30C37.5 30.0002 37.5 46.8764 37.5 46.8764C37.5 46.8764 22.9996 48.5095 23 62.1197C23.0004 75.7298 34.499 76.2741 34.499 76.2741C34.499 76.2741 65.0004 77.9073 71 76.2741C76.9996 74.641 85 70.8305 85 62.1197C85 53.4088 78.9986 48.5095 69.499 48.5095ZM69.499 48.5095C59.9994 48.5095 57.5 58.3093 57.5 58.3093" stroke="url(#paint1_linear_185_219)" stroke-width="10" stroke-linecap="round"/>
<defs>
<linearGradient id="paint0_linear_185_219" x1="54" y1="0" x2="54" y2="108" gradientUnits="userSpaceOnUse">
<stop stop-color="#E5FCFF"/>
<stop offset="1" stop-color="#A2D2FF"/>
</linearGradient>
<linearGradient id="paint1_linear_185_219" x1="54" y1="30" x2="54" y2="77" gradientUnits="userSpaceOnUse">
<stop stop-color="#00EBFF"/>
<stop offset="1" stop-color="#0064E2"/>
</linearGradient>
</defs>
</svg>
